<svg id="Layer_1" data-name="Layer 1" xmlns="http://www.w3.org/2000/svg" viewBox="0 0 2647.24 1032"><defs><style>.cls-1{fill:#fff;}</style></defs><title>JAUNT LOGO WHITE</title><path class="cls-1" d="M325.25,106.32C325.25,45.73,371.59,0,431.48,0c58.76,0,105.09,45.73,105.09,106.32S490.24,212.63,431.48,212.63c-59.89,0-106.23-45.72-106.23-106.31"/><path class="cls-1" d="M618.7,676.21c25.06,26.28,55.68,39.42,93.73,39.42s68.67-13.14,93.72-40.36,38.05-59.14,38.05-96.7-13-69.46-38.05-95.75-55.68-39.43-93.72-39.43-68.67,13.14-93.73,39.43q-36.18,39.44-36.19,95.75c0,38.5,12.07,70.41,36.19,97.64M844.2,322.29H981.54V836.73H844.2V784.17c-43.61,44.11-95.58,65.71-156.83,65.71-72.38,0-132.7-26.29-180-77.92C460,719.4,436.82,654.62,436.82,576.69c0-77,24.13-140.8,71.45-191.5s107.65-76,179.1-76c61.25,0,113.22,22.53,156.83,67.59Z"/><path class="cls-1" d="M1089.25,616.13V322.29h145.69V617.06c0,59.15,34.34,97.64,92.81,97.64s92.79-38.49,92.79-97.64V322.29h145.69V616.13c0,149.26-90,233.75-238.48,233.75-147.56,0-238.5-86.37-238.5-233.75"/><path class="cls-1" d="M1669.85,836.74V322.3h142v71.34c26.91-48.82,87.23-85.43,160.54-85.43,54.75,0,102.08,18.78,140.12,55.39S2170,453.72,2170,522.25V836.74h-145.7v-276c0-75.1-39-117.35-99.29-117.35-65.88,0-109.5,48.82-109.5,121.1V836.74Z"/><path class="cls-1" d="M336.85,504.42V322.29H192.09V810.45c0,58.2-22.27,87.31-67.74,87.31q-34.8,0-83.52-25.35L0,989.76Q65.43,1032,155.9,1032c121.56,0,181.88-69.47,181.88-207.47V626.45Z"/><path class="cls-1" d="M2647.24,807.61q-65.4,42.3-155.87,42.27c-121.58,0-181.87-69.48-181.87-207.45V444.31h-80.77v-122h81.68V140.17h144.77V322.32h141.57v122H2455.18V628.37c0,58.16,22.29,87.29,67.69,87.29q34.92,0,83.57-25.38Z"/></svg>